<svg width="176" height="102" viewBox="0 0 176 102" fill="none" xmlns="http://www.w3.org/2000/svg">
<g clip-path="url(#clip0_71_643)">
<path fill-rule="evenodd" clip-rule="evenodd" d="M88.22 7C95.7901 6.99487 103.331 6.05441 110.67 4.2L111.59 3.97L112.28 4.61C117.498 9.43976 121.125 15.7416 122.68 22.68L122.88 23.6L122.22 24.3C111.674 35.1842 103.994 48.5162 99.87 63.1L99.61 64.03L98.69 64.31C95.2967 65.3465 91.7681 65.8723 88.22 65.87C84.6588 65.8667 81.1186 65.3238 77.72 64.26L76.83 64L76.57 63.1C72.4212 48.5157 64.7255 35.1856 54.17 24.3L53.51 23.6L53.71 22.68C55.2995 15.7181 58.9601 9.4008 64.21 4.56L64.9 3.92L65.82 4.15C73.1419 6.0129 80.6649 6.97005 88.22 7Z" fill="#002E61"/>
<path fill-rule="evenodd" clip-rule="evenodd" d="M57.7 30.52C57.6926 23.4577 60.1347 16.6115 64.6099 11.1482C69.0852 5.68484 75.3166 1.94262 82.2421 0.559348C89.1676 -0.823921 96.3584 0.23738 102.589 3.56235C108.82 6.88733 113.704 12.2702 116.41 18.7934C119.117 25.3166 119.477 32.5765 117.429 39.3355C115.382 46.0945 111.054 51.9344 105.183 55.8597C99.3125 59.785 92.262 61.5528 85.2336 60.8617C78.2052 60.1707 71.634 57.0636 66.64 52.07C63.8006 49.2463 61.5487 45.8881 60.0142 42.1893C58.4798 38.4905 57.6932 34.5244 57.7 30.52Z" fill="#002E61"/>
<path d="M65.66 6.9C63.4121 9.05685 61.4767 11.5173 59.91 14.21C58.3647 16.8854 57.2097 19.7679 56.48 22.77C61.7539 28.2791 66.3498 34.3992 70.17 41C73.9466 47.5563 76.9118 54.5476 79 61.82C80.4231 62.2484 81.8729 62.5825 83.34 62.82C84.9484 63.0651 86.573 63.1888 88.2 63.19C89.85 63.1925 91.4979 63.0721 93.13 62.83C94.5664 62.6184 95.9865 62.3076 97.38 61.9C101.605 47.2383 109.33 33.8233 119.89 22.81C118.427 16.7886 115.286 11.3061 110.83 7C107.205 7.87789 103.532 8.54567 99.83 9C95.9683 9.47728 92.0811 9.71773 88.19 9.72C84.2575 9.71645 80.3294 9.45925 76.43 8.95C72.7953 8.48664 69.1896 7.81891 65.63 6.95L65.66 6.9ZM58.24 13.25C59.9836 10.233 62.1714 7.49566 64.73 5.13L65.11 4.77L65.62 4.9C69.2689 5.81688 72.9686 6.51809 76.7 7C80.5204 7.49122 84.3682 7.73839 88.22 7.74C92.0307 7.74 95.8379 7.50623 99.62 7.04C103.408 6.58832 107.165 5.90707 110.87 5L111.38 4.87L111.76 5.23C116.841 9.94917 120.376 16.095 121.9 22.86L122.02 23.36L121.66 23.73C116.351 29.2315 111.743 35.368 107.94 42C104.134 48.6049 101.167 55.6596 99.11 63L98.96 63.5L98.46 63.66C95.1362 64.6415 91.6856 65.1267 88.22 65.1C86.4956 65.0988 84.7739 64.9651 83.07 64.7C81.3543 64.4264 79.6601 64.0321 78 63.52L77.5 63.36L77.36 62.85C75.2802 55.5588 72.3006 48.5549 68.49 42C64.6691 35.3693 60.0478 29.2333 54.73 23.73L54.37 23.36L54.49 22.86C55.2439 19.4846 56.5085 16.244 58.24 13.25Z" fill="#E3E3E2"/>
<path d="M58.48 30.52C58.4795 23.6487 60.8616 16.9898 65.2203 11.678C69.579 6.3661 75.6447 2.72989 82.3839 1.38892C89.123 0.047951 96.1187 1.08519 102.179 4.3239C108.239 7.56261 112.989 12.8024 115.619 19.1505C118.248 25.4985 118.596 32.5621 116.602 39.1376C114.607 45.7132 110.395 51.3938 104.682 55.2116C98.9688 59.0294 92.1087 60.7481 85.2705 60.075C78.4322 59.4019 72.039 56.3785 67.18 51.52C64.4189 48.7646 62.2291 45.4912 60.7361 41.8875C59.2432 38.2838 58.4765 34.4207 58.48 30.52ZM68.55 10.85C64.001 15.3979 61.1699 21.3825 60.5391 27.784C59.9084 34.1855 61.517 40.6076 65.091 45.9559C68.6649 51.3041 73.9829 55.2475 80.1386 57.114C86.2943 58.9804 92.9068 58.6545 98.8491 56.1916C104.791 53.7288 109.696 49.2814 112.726 43.6076C115.757 37.9338 116.726 31.3846 115.469 25.0762C114.212 18.7678 110.806 13.0906 105.831 9.01218C100.857 4.93375 94.6225 2.7065 88.19 2.71C84.5417 2.70763 80.9289 3.42545 77.5586 4.82229C74.1883 6.21913 71.1269 8.26752 68.55 10.85Z" fill="#E3E3E2"/>
<path d="M78.09 29C79.0137 28.8146 79.9703 28.8802 80.86 29.19C81.7017 29.4912 82.4264 30.0513 82.93 30.79L83.4 31.89L82.31 31.49C80.68 30.61 79.04 31.1 77.43 31.58C75.38 32.18 73.38 32.78 71.28 31.01C70.8716 30.6712 70.5321 30.257 70.28 29.79C70.0503 29.3936 69.8466 28.9827 69.67 28.56L69 27L70.36 28C70.36 28 73.27 30.24 78.07 29H78.09Z" fill="#E3E3E2"/>
<path fill-rule="evenodd" clip-rule="evenodd" d="M87.55 21C85.55 21 83.61 21.39 82.87 22.44C82.43 22.8324 82.0876 23.322 81.87 23.87C81.87 23.87 76.65 20.35 75 28.08C75 28.08 78.17 25.81 80 27.29C80.6619 28.1275 81.5778 28.7276 82.61 29C84.92 29.62 84.61 30.08 84.76 30.56C84.76 30.56 84.46 31.28 82.46 32.56C80.46 33.84 79.36 33.23 77.54 32.64C77.54 32.64 77.42 35.33 81.03 35.28C81.4625 35.3183 81.8975 35.3183 82.33 35.28C82.33 35.28 78 37.07 79.64 41.52C80.4725 40.525 81.5519 39.7663 82.77 39.32C82.77 39.32 78.08 44.65 84.28 49.84C84.28 49.84 84.28 45.08 86.04 43.62C86.04 43.62 87.04 47.41 86.71 49.49C86.6732 50.4422 86.456 51.3788 86.07 52.25C86.07 52.25 93.42 52.1 91.32 43.25C91.32 43.25 94.26 44.25 93.65 48.25C93.65 48.25 100.25 44.95 95.9 38.17C96.7001 38.232 97.4559 38.5618 98.0455 39.1061C98.6352 39.6504 99.0243 40.3774 99.15 41.17C99.15 41.17 102.68 35.71 96.85 30.52C97.4798 30.376 98.1381 30.4205 98.7427 30.6482C99.3473 30.8758 99.8716 31.2764 100.25 31.8C100.144 30.5125 99.7162 29.2723 99.0049 28.1939C98.2936 27.1156 97.322 26.2338 96.18 25.63C95.29 25.14 96.69 23.71 96.33 22.91L87.55 21Z" fill="#CA0538"/>
<path fill-rule="evenodd" clip-rule="evenodd" d="M92.11 24.22C92.11 24.22 94.49 21.22 98.05 21.61C98.05 21.61 97.05 26.06 93.13 26.88L92.13 24.22H92.11Z" fill="#CA0538"/>
<path fill-rule="evenodd" clip-rule="evenodd" d="M93.26 24.65C94.1006 23.8583 95.1356 23.3028 96.26 23.04C96.0083 23.5976 95.6368 24.0928 95.1718 24.4903C94.7068 24.8879 94.1599 25.178 93.57 25.34L93.26 24.65Z" fill="#E3E3E2"/>
<path fill-rule="evenodd" clip-rule="evenodd" d="M86.25 29C86.0458 28.8411 85.8033 28.739 85.5469 28.7038C85.2906 28.6687 85.0295 28.7019 84.79 28.8C86.2 28.85 86.43 30.85 87.96 30.44C88.2339 30.3609 88.4937 30.2395 88.73 30.08C87.73 30.49 86.91 29.57 86.25 29Z" fill="#E3E3E2"/>
<path fill-rule="evenodd" clip-rule="evenodd" d="M94.26 34.67C94.1459 33.8825 93.7995 33.1468 93.2651 32.5572C92.7307 31.9676 92.0325 31.5507 91.26 31.36C91.5172 32.2195 91.6782 33.105 91.74 34C91.7707 34.7677 91.5798 35.528 91.19 36.19C90.9316 36.5907 90.5907 36.9316 90.19 37.19C90.4623 36.5151 90.5452 35.7786 90.43 35.06C90.2141 34.1479 89.7132 33.3282 89 32.72C89.0088 33.3916 88.9451 34.0621 88.81 34.72C88.679 35.3559 88.3242 35.9237 87.81 36.32C88.0495 35.5894 87.9994 34.7947 87.67 34.1L86.8 34.57C86.9233 34.8399 86.9871 35.1332 86.9871 35.43C86.9871 35.7268 86.9233 36.0201 86.8 36.29C86.4363 36.8672 85.9841 37.3835 85.46 37.82C87.22 37.71 88.82 37.53 89.64 35.56C89.5648 36.8192 89.056 38.0135 88.2 38.94C89.77 38.63 91.09 38.31 92.06 36.79C92.6864 35.7635 92.9307 34.5489 92.75 33.36C93.66 34.58 93.55 36.17 93.55 37.61C94.8293 36.3138 95.5691 34.5805 95.62 32.76C95.5966 31.9153 95.4029 31.0841 95.0507 30.316C94.6984 29.5479 94.1948 28.8588 93.57 28.29L93.24 29.29C93.8914 30.0042 94.3376 30.8813 94.5313 31.8284C94.7249 32.7756 94.6588 33.7574 94.34 34.67H94.26Z" fill="#E3E3E2"/>
<path d="M80.32 30.07C79.6698 29.8806 78.9832 29.8531 78.32 29.99C75.9763 30.641 73.483 30.4968 71.23 29.58C71.4009 29.846 71.6176 30.0796 71.87 30.27C73.57 31.72 75.34 31.2 77.14 30.66C78.1577 30.3014 79.2222 30.0925 80.3 30.04L80.32 30.07Z" fill="#CA0538"/>
<path fill-rule="evenodd" clip-rule="evenodd" d="M89.22 18.38C89.83 19.38 90.83 20.76 92.09 20.76C92.6395 20.7798 93.183 20.6403 93.655 20.3581C94.1269 20.076 94.5072 19.6634 94.75 19.17C94.478 19.2383 94.1916 19.2208 93.93 19.12C93.5364 18.9515 93.2177 18.6453 93.0336 18.2587C92.8496 17.8722 92.8127 17.4318 92.93 17.02C93.047 16.605 93.3218 16.2523 93.6956 16.0374C94.0694 15.8224 94.5124 15.7624 94.93 15.87C95.2118 15.9577 95.4666 16.1161 95.67 16.33C95.4517 15.933 95.3978 15.4663 95.52 15.03C95.6666 14.5691 95.9671 14.1725 96.3713 13.9067C96.7754 13.6409 97.2586 13.522 97.74 13.57L94.16 22.4H82.33L78.72 14C79.1984 13.9549 79.6778 14.0753 80.0781 14.341C80.4785 14.6067 80.7756 15.0017 80.92 15.46C80.9816 15.6458 81.0001 15.8433 80.9741 16.0373C80.9481 16.2314 80.8783 16.4169 80.77 16.58C80.95 16.38 81.23 15.99 81.51 15.89C81.9718 15.8237 82.4421 15.9269 82.8337 16.1807C83.2253 16.4344 83.5117 16.8214 83.64 17.27C83.79 18.27 83.46 18.94 82.64 19.22C82.31 19.2871 81.9699 19.2871 81.64 19.22C81.9161 19.7207 82.3262 20.1346 82.8242 20.4154C83.3223 20.6962 83.8887 20.8328 84.46 20.81C85.71 20.81 86.63 19.46 87.25 18.43C86.9605 18.6419 86.6085 18.751 86.25 18.74C85.8281 18.7074 85.434 18.5168 85.1466 18.2062C84.8592 17.8957 84.6995 17.4882 84.6995 17.065C84.6995 16.6419 84.8592 16.2343 85.1466 15.9238C85.434 15.6133 85.8281 15.4226 86.25 15.39C86.5402 15.3829 86.8258 15.463 87.07 15.62C86.752 15.2964 86.5696 14.8636 86.56 14.41C86.56 13.9724 86.7338 13.5527 87.0432 13.2433C87.3527 12.9338 87.7724 12.76 88.21 12.76C88.6476 12.76 89.0673 12.9338 89.3767 13.2433C89.6861 13.5527 89.86 13.9724 89.86 14.41C89.8431 14.8718 89.6541 15.3106 89.33 15.64C89.5817 15.4811 89.8723 15.3946 90.17 15.39C90.5919 15.4226 90.9859 15.6133 91.2733 15.9238C91.5608 16.2343 91.7205 16.6419 91.7205 17.065C91.7205 17.4882 91.5608 17.8957 91.2733 18.2062C90.9859 18.5168 90.5919 18.7074 90.17 18.74C89.821 18.6961 89.4826 18.5912 89.17 18.43L89.22 18.38Z" fill="#E8B427"/>
<path d="M85.31 24.6C85.1368 24.59 84.9632 24.59 84.79 24.6C84.7822 24.8317 84.6832 25.0509 84.5147 25.21C84.3462 25.3692 84.1217 25.4554 83.89 25.45C83.6853 25.4534 83.4855 25.3868 83.3237 25.2614C83.1619 25.136 83.0477 24.9591 83 24.76C82.8333 24.7462 82.6688 24.7126 82.51 24.66C82.5374 24.9771 82.6644 25.2774 82.8727 25.5181C83.0811 25.7587 83.3601 25.9274 83.67 26C84.0133 26.0475 84.3617 25.9622 84.6442 25.7615C84.9267 25.5608 85.1219 25.2598 85.19 24.92C85.19 24.82 85.27 24.72 85.31 24.64V24.6ZM83.61 22.4C83.4762 22.502 83.3582 22.6233 83.26 22.76C82.9971 23.015 82.7655 23.3003 82.57 23.61C83.094 23.8317 83.6813 23.853 84.22 23.67C84.9844 23.4995 85.7839 23.5911 86.49 23.93C86.8426 24.0635 87.1581 24.2795 87.41 24.56L86.71 25.19C86.71 25.19 86.26 24.68 86.09 25.14C85.9498 25.691 85.608 26.1693 85.1321 26.4804C84.6562 26.7915 84.0809 26.9127 83.52 26.82C82.9345 26.6759 82.4163 26.335 82.0522 25.8544C81.6881 25.3738 81.5002 24.7826 81.52 24.18C80.82 23.77 77.33 22 75.78 27.02C76.97 26.41 78.93 25.73 80.32 26.86C80.9088 27.6214 81.7307 28.1693 82.66 28.42C84.99 29.05 85.06 29.63 85.14 30.22C85.1336 30.2631 85.1336 30.3069 85.14 30.35V30.5L85.08 30.64C85.08 30.64 84.71 31.5 82.59 32.83C81.937 33.3029 81.1675 33.5891 80.3641 33.6578C79.5608 33.7265 78.7539 33.5752 78.03 33.22C78.27 33.85 78.96 34.68 80.89 34.65C81.2992 34.6852 81.7108 34.6852 82.12 34.65L85.29 34.31L82.52 35.7C82.52 35.7 79.12 37.13 79.87 40.59C80.6398 39.7906 81.5946 39.193 82.65 38.85L84.12 38.49L83.12 39.64C82.006 40.9498 81.4554 42.6471 81.5884 44.3614C81.7214 46.0757 82.5273 47.6678 83.83 48.79C83.95 47.24 84.34 44.39 85.73 43.25L86.31 42.77L86.5 43.5C86.5 43.5 87.5 47.34 87.18 49.5C87.1425 50.2281 87.0217 50.9494 86.82 51.65C88.54 51.32 92.38 49.85 90.82 43.36L90.61 42.49L91.45 42.79C92.3294 43.16 93.0681 43.8005 93.559 44.6186C94.0499 45.4367 94.2674 46.3899 94.18 47.34C95.69 46.24 98.59 43.34 95.46 38.44L95 37.7H95.9C96.6083 37.7477 97.2903 37.9869 97.8733 38.392C98.4562 38.7971 98.9182 39.3528 99.21 40C99.88 38.29 100.61 34.56 96.53 30.93L95.83 30.31L96.74 30.1C97.6849 29.9045 98.6685 30.046 99.52 30.5C99.2764 29.5536 98.8373 28.6688 98.2311 27.9024C97.6248 27.136 96.8648 26.505 96 26.05C95.2294 26.7104 94.3039 27.1646 93.31 27.37L93 26.41C95.18 25.95 97 23.34 97.38 22.05C96.4317 22.0964 95.5035 22.3401 94.6547 22.7654C93.8058 23.1907 93.0549 23.7882 92.45 24.52L91.7 23.92C91.7 23.92 94.24 20.69 98.07 21.13L98.6 21.19L98.48 21.72C98.1349 23.0502 97.4921 24.2846 96.6 25.33C97.7528 25.9924 98.7279 26.9243 99.4419 28.0458C100.156 29.1674 100.588 30.4452 100.7 31.77L100.78 33.53L99.78 32.06C99.5815 31.7561 99.3196 31.4987 99.0124 31.3054C98.7052 31.1121 98.3599 30.9875 98 30.94C103 36.17 99.59 41.41 99.58 41.42L98.98 42.37L98.7 41.29C98.6066 40.7828 98.395 40.3048 98.0822 39.8947C97.7695 39.4847 97.3644 39.1542 96.9 38.93C100.32 45.5 93.9 48.7 93.9 48.71L93.06 49.14L93.2 48.21C93.3826 47.5005 93.3713 46.7549 93.1673 46.0513C92.9632 45.3476 92.5739 44.7117 92.04 44.21C93.43 52.55 86.14 52.7 86.11 52.7H85.23L85.68 51.95C86.0284 51.1464 86.225 50.2852 86.26 49.41C86.3481 47.8169 86.1999 46.2196 85.82 44.67C84.82 46.43 84.82 49.83 84.82 49.84V50.84L84 50.21C79.49 46.44 80.42 42.58 81.45 40.53C80.9144 40.9051 80.4273 41.3451 80 41.84L79.47 42.47L79.18 41.69C78.7351 40.6781 78.638 39.5473 78.904 38.4744C79.1699 37.4014 79.7839 36.4469 80.65 35.76C76.91 35.62 77.05 32.63 77.05 32.62V31.99L77.65 32.18L78.22 32.37C79.6 32.84 80.59 33.18 82.16 32.16C82.9408 31.7349 83.6386 31.1726 84.22 30.5C84.22 30.24 84.15 29.98 82.45 29.5C81.3307 29.1898 80.3372 28.5356 79.61 27.63C78.07 26.46 75.26 28.47 75.25 28.48L74.25 29.18L74.51 27.98C75.44 23.57 77.51 22.55 79.22 22.58C80.0666 22.6161 80.8955 22.8344 81.65 23.22C81.8193 22.928 82.0169 22.6533 82.24 22.4H83.61Z" fill="#E3E3E2"/>
<path fill-rule="evenodd" clip-rule="evenodd" d="M164.84 74.57H149.35L141.24 94.62V74.55H130.84V101.48H149.07L150.71 97.38H163.71L165.57 101.48H175.74L164.84 74.57ZM118.63 89L107.63 74.51H94.41V94.51L86.12 74.51H70.84L64.44 90.51H54.89C54.09 93.86 52.28 95.34 48.97 95.34C45.19 95.34 42.62 92.53 42.62 88.34C42.62 82.89 44.78 80.07 48.9 80.07C52.28 80.07 54.2 81.58 54.79 84.73H65.61V84.32C65.61 77.82 59.03 73.54 49.02 73.54C38.32 73.54 33.25 77.71 32.38 87.29C30.8066 85.6124 28.7142 84.5134 26.44 84.17L22.44 83.81L16.44 83.71C13.88 83.65 12.44 82.71 12.44 81.25C12.44 79.53 13.93 78.58 16.64 78.58C19.76 78.58 21.02 79.74 21.02 82.58H32.41V82.22C32.41 76.66 27.03 73.59 17.28 73.59C6.45 73.59 1.15 76.59 1.15 82.59C1.15 87.73 5.04 90.5 12.49 90.7L16.92 90.81C20.17 90.91 21.63 91.7 21.63 93.42C21.63 94.88 19.58 96.26 17.46 96.26C13.75 96.26 11.8 94.98 11.8 92.57H0V92.83C0 98.67 5.89 101.83 16.59 101.83C26.91 101.83 31.98 99.57 33.59 94.22C36.9 99.85 41.2 101.9 49.59 101.9C54.91 101.9 57.68 101.16 61.13 98.65L60 101.48H70.09L71.94 97.28H85.15L86.91 101.43H104.17V85.43L116.43 101.43H128.64V74.57H118.64V89H118.63ZM153.5 90.59L157.06 81.68L161.06 90.54H153.46L153.5 90.59ZM74.7 90.59L78.29 81.4L82.38 90.59H74.7Z" fill="#002E61"/>
</g>
<defs>
<clipPath id="clip0_71_643">
<rect width="175.75" height="101.99" fill="white"/>
</clipPath>
</defs>
</svg>
